<svg version="1.1" id="Layer_1" xmlns:x="ns_extend;" xmlns:i="ns_ai;" xmlns:graph="ns_graphs;" xmlns="http://www.w3.org/2000/svg" xmlns:xlink="http://www.w3.org/1999/xlink" x="0px" y="0px" viewBox="0 0 996.1 380.4" style="enable-background:new 0 0 996.1 380.4;" xml:space="preserve">
 <style type="text/css">
  .st0{fill-rule:evenodd;clip-rule:evenodd;}
 </style>
 <metadata>
  <sfw xmlns="ns_sfw;">
   <slices>
   </slices>
   <sliceSourceBounds bottomLeftOrigin="true" height="380.5" width="996" x="0.1" y="0">
   </sliceSourceBounds>
  </sfw>
 </metadata>
 <g>
  <path d="M806.5,222.9l16.3-3.8c0.3-0.1,0.9-0.2,1.6-0.4c4.5-1.2,8.3-4.1,10.7-8.1s3.2-8.7,2.1-13.3c0-0.1,0-0.2-0.1-0.3
		c-0.5-2.2-1.5-4.2-2.8-6.1c-1.8-2.3-4.1-4.2-6.6-5.7c-3-1.7-6.2-3.2-9.4-4.4l-17.8-6.5c-10-3.7-20-7.3-30.1-10.9
		c-6.6-2.3-12.1-4.4-16.9-5.9c-0.9-0.3-1.9-0.6-2.7-0.8c-5.8-1.8-9.9-2.5-13.4-2.6c-2.3-0.1-4.6,0.3-6.8,1.2c-2.2,1-4.2,2.4-5.9,4.2
		c-0.8,0.9-1.6,1.9-2.3,2.9s-1.3,2.1-1.8,3.2c-0.6,1.2-1.1,2.4-1.6,3.6c-3.3,9.8-5,20.1-4.9,30.4c0.1,9.3,0.3,21.3,5.4,29.4
		c1.2,2.1,2.9,3.9,4.9,5.3c3.7,2.5,7.4,2.9,11.2,3.1c5.7,0.4,11.3-1,16.9-2.3L806.5,222.9L806.5,222.9z">
  </path>
  <path d="M988,136.5c-4.4-9.3-10.4-17.8-17.7-25.2c-0.9-0.9-1.9-1.8-3-2.6c-1-0.7-2-1.4-3.1-2.1c-1.1-0.6-2.2-1.1-3.3-1.6
		c-2.3-0.9-4.7-1.3-7.1-1.2c-2.3,0.1-4.6,0.8-6.6,1.9c-3.1,1.5-6.5,4-10.9,8.2c-0.6,0.6-1.4,1.3-2.1,2c-3.7,3.5-7.8,7.7-12.7,12.7
		c-7.5,7.6-15,15.3-22.3,23L886,165.3c-2.4,2.5-4.6,5.2-6.6,8.1c-1.7,2.4-2.9,5.2-3.5,8c-0.4,2.2-0.3,4.5,0.2,6.7
		c0,0.1,0,0.2,0.1,0.3c1,4.5,3.8,8.5,7.7,11s8.6,3.5,13.2,2.6c0.7-0.1,1.3-0.2,1.6-0.3l70.3-16.3c5.5-1.3,11.2-2.5,16.1-5.3
		c3.3-1.9,6.5-3.9,8.7-7.7c1.2-2.1,1.9-4.5,2.1-6.9C997,155.9,992,145,988,136.5z">
  </path>
  <path d="M862.1,166.1c5.1-6.4,5.1-15.9,5.5-23.8c1.5-26.1,3.1-52.1,4.4-78.2c0.5-9.9,1.6-19.6,1-29.6c-0.5-8.2-0.5-17.6-5.7-24.4
		c-9.2-11.9-28.7-10.9-42-9.1c-4.1,0.6-8.2,1.3-12.2,2.3s-8.1,2-12,3.3c-12.8,4.2-30.7,11.9-33.8,26.6c-1.7,8.3,2.3,16.8,5.5,24.4
		c3.8,9.2,9,17.5,13.8,26.2c12.6,22.9,25.4,45.6,38.2,68.4c3.8,6.8,8,15.4,15.4,18.9c0.5,0.2,1,0.4,1.5,0.6
		c3.3,1.3,6.9,1.5,10.4,0.7c0.2,0,0.4-0.1,0.6-0.1c3.2-0.9,6.1-2.6,8.3-5C861.3,166.9,861.7,166.5,862.1,166.1z">
  </path>
  <path d="M856,235.9c-2-2.8-4.8-4.9-8.1-6s-6.8-1.1-10.1-0.1c-0.8,0.3-1.5,0.6-2.2,0.9c-1.1,0.6-2.2,1.2-3.2,2
		c-2.9,2.2-5.4,5-7.6,7.8c-0.6,0.7-1.1,1.7-1.8,2.3l-11.3,15.6c-6.4,8.7-12.7,17.5-19,26.3c-4.1,5.7-7.6,10.6-10.4,14.9
		c-0.5,0.8-1.1,1.7-1.6,2.4c-3.4,5.2-5.2,9-6.2,12.3c-0.7,2.2-1,4.6-0.7,6.9c0.3,2.4,1.1,4.8,2.4,6.9c0.7,1.1,1.4,2.1,2.2,3
		s1.7,1.8,2.6,2.7c1,0.9,2,1.8,3.1,2.5c7.8,5.4,16.4,9.3,25.4,12.4c7.5,2.5,15.3,4,23.1,4.4c1.3,0.1,2.7,0,4-0.1
		c1.2-0.1,2.5-0.3,3.7-0.5c1.2-0.3,2.4-0.6,3.6-1c2.3-0.9,4.4-2.2,6.1-3.9c1.7-1.7,2.9-3.7,3.7-5.9c1.3-3.3,2.2-7.4,2.7-13.5
		c0-0.9,0.2-1.9,0.3-2.9c0.4-5.1,0.7-11.1,1-18.1c0.6-10.8,1-21.6,1.3-32.4l0.7-19.2c0.2-4.4,0-9.3-1.2-13.7
		C858,239.8,857.2,237.8,856,235.9L856,235.9z">
  </path>
  <path d="M983.7,266c-2.4-2.6-5.7-5.2-11-8.4c-0.8-0.4-1.7-1-2.5-1.5c-4.4-2.6-9.7-5.4-15.9-8.8c-9.5-5.2-19-10.3-28.6-15.3l-17-9
		c-0.9-0.3-1.8-0.9-2.6-1.3c-3.3-1.6-6.7-3-10.3-3.7c-1.2-0.2-2.5-0.4-3.7-0.4c-0.8,0-1.6,0-2.4,0.1c-3.4,0.5-6.5,2.1-9,4.5
		c-2.4,2.4-4.1,5.5-4.6,8.9c-0.3,2.2-0.2,4.3,0.2,6.5c0.8,4.5,2.8,9,4.9,12.9l9.1,17c5,9.6,10.1,19.1,15.4,28.6
		c3.4,6.2,6.2,11.5,8.8,15.9c0.5,0.8,1.1,1.7,1.5,2.5c3.2,5.3,5.8,8.6,8.4,11c1.7,1.6,3.7,2.9,5.9,3.6c2.3,0.8,4.8,1,7.2,0.8
		c1.2-0.1,2.5-0.4,3.7-0.6c1.2-0.3,2.4-0.7,3.5-1.2c1.3-0.5,2.5-1,3.6-1.7c6.9-3.9,13.2-8.6,18.9-14.1c6.8-6.7,12.7-13.9,17.4-22.2
		c0.6-1.2,1.2-2.4,1.7-3.7c0.4-1.2,0.8-2.3,1.1-3.5s0.5-2.5,0.6-3.7c0.2-2.4-0.1-4.9-0.8-7.2C986.6,269.7,985.3,267.7,983.7,266
		L983.7,266z">
  </path>
  <path class="st0" d="M400,101c0-14,11.4-25.4,25.1-25.4c13.6,0,24.5,11.4,25.1,25.6v198.3c0,14-11.4,25.4-25.1,25.4
		c-14.1,0-25.1-11.4-25.1-25.4V101z M376.7,223.4c-0.2,3.9-1.2,11.2-6.3,16.5c-5.5,5.7-13,7.1-17.3,7.1c-18,0.1-35.9,0.1-53.9,0.2
		c-18,0-35.9,0.1-53.9,0.2c1.6,4.9,4.7,12.4,11.8,19.3c4.3,4.1,8.4,6.5,10.2,7.5c2.2,1.4,9.6,5.3,18.9,5.3c9.8,0,18.5-3.2,26.9-7.5
		l0.7-0.4c5.9-3,11.9-6.2,18.3-7.3c6.3-1,13,0.2,17.9,4.5c5.9,5.1,8.2,12.6,6.1,20.3c-2.6,8.7-9.8,16.1-17.5,20.7
		c-4.3,2.6-9,4.7-13.7,6.5c-6.1,2.2-12.4,3.7-18.7,4.7c-6.3,1-12.8,1.4-19.2,1.2l0,0c-3.1,0-6.5,0-9.8-0.4c-3.5-0.4-7.1-1.2-10.4-2
		c-5.5-1.2-10.6-3-15.7-5.3c-4.9-2.2-9.8-4.9-14.3-8.1s-8.6-6.9-12.6-10.8c-3.7-3.9-7.3-8.3-10.4-13c-10.6-16.1-15.5-36-14.5-55.3
		c0.8-18.9,7.1-37.8,18.5-53.2c1.2-1.9,2.7-3.6,4-5.1c0.6-0.7,1.2-1.3,1.7-2c14.1-17.2,32.9-22.6,40.6-24.9l0.4-0.1
		c22.2-6.3,40.6-2.2,48.1,0c3.7,1,24.7,7.5,41,25c0.8,0.8,2.9,3.3,5.7,7.1c10.3,14.1,13.9,27.2,15.1,31.6v0.1
		C375.5,210.2,376.7,216.1,376.7,223.4z M261.4,190.9c-11.4,9.3-14.5,21.1-15.3,24.8h85.6c-0.8-3.5-4.1-15.6-15.5-24.8
		c-11.6-9.3-23.8-9.8-27.5-9.8C284.9,181.1,272.8,181.7,261.4,190.9z M587,138.8c-22.4,0-42.8,10-57.3,26.4v-0.6
		c-0.6-13.2-11.6-23.8-24.9-23.8c-13.9,0-25.1,11.2-25.1,25.2v189.2c0,14,11.2,25.2,25.1,25.2s25.1-11.2,25.1-25.2v-7.3v-51.8
		c14.5,16.1,34.8,26.4,57.3,26.4c45,0,81.5-40.8,81.5-91.6C668.5,180.1,632,138.8,587,138.8z M576,281.3c-25.5,0-46.3-22.3-46.3-50
		c0-28,20.6-50.2,46.3-50.2c25.5,0,46.3,22.3,46.3,50.2C622.1,259.1,601.5,281.3,576,281.3z M161.4,244.1l-8.2,18.1
		c-3.7,7.9-7.5,16-11,24c-1.1,2.5-2.3,5-3.4,7.6c-15.7,34.9-34.3,76.4-74.9,85.2c-19.6,4.3-49.3-1.6-60.3-20.1
		c-11-18.7,5.3-40.2,26.3-35.2c3.3,0.7,6.6,2.4,9.9,4c5.5,2.7,11,5.5,17,4.3c5.7-1,9.2-5.1,13.7-10.4c6.3-7.3,9-15,10.2-19.5
		c-0.1-0.2-0.2-0.4-0.3-0.7c-0.1-0.2-0.2-0.5-0.3-0.7c-5.1-9.5-9.6-18.1-13.3-25.2c-2.4-4.6-4.5-8.7-6.3-12
		c-3.7-6.9-6.4-12.2-8.6-16.2c-6.3-11.9-7.3-13.9-10.1-19c-6.1-11.6-12.6-22.8-19.2-34.1C15.3,182,7.9,168.4,14,154
		c4.9-11.6,17.5-17.5,29.5-13.8C56,144,61.6,156,66.9,167.3c0.9,2,1.9,4,2.8,6c8.4,16.7,16.7,33.5,24.9,50.2
		c0.7,1.7,1.8,3.9,3.2,6.7c1.2,2.5,2.6,5.3,4.1,8.5c0.8,1.6,1.5,3.2,2.2,4.5c0.9,1.8,1.6,3.3,2.1,4.5c3.8-9.6,7.7-19.1,11.6-28.6
		s7.8-19,11.6-28.6c0.1-0.5,1-2.6,2.4-5.6c1.2-2.6,2.7-5.9,4.3-9.7c0.5-1.3,1.1-2.6,1.7-4c5.1-12.4,11.2-27.4,24.8-31.4
		c9.8-3,20.8,1,26.5,9.3c2.9,4.1,4.1,8.9,4.3,13.6c0.2,10.5-4.9,21.7-9.2,31.3c-1.1,2.3-2.1,4.6-3,6.7c0,0.1-0.2,0.5-0.5,1.2
		c-1.2,2.7-4.5,10-10.1,22.1c-2,4.3-4,8.6-5.9,13C163.6,239.3,162.5,241.7,161.4,244.1z">
  </path>
  <path d="M687.7,305.9h1.8c0.9,0,1.6-0.2,2.2-0.7c0.5-0.5,0.8-1.1,0.8-1.8c0-0.8-0.2-1.4-0.7-1.8s-1.2-0.6-2.3-0.6h-1.8V305.9z
		 M695,303.4c0,0.9-0.2,1.7-0.7,2.4c-0.5,0.7-1.1,1.2-2,1.5l4,6.7h-2.8l-3.5-6h-2.3v6h-2.5v-15h4.4c1.9,0,3.2,0.4,4.1,1.1
		C694.6,300.8,695,301.9,695,303.4z M677.2,306.4c0-2.2,0.6-4.4,1.7-6.3c1.1-2,2.7-3.5,4.6-4.7c2-1.1,4.1-1.7,6.4-1.7
		c2.2,0,4.4,0.6,6.3,1.7c2,1.1,3.5,2.7,4.7,4.6c1.1,2,1.7,4.1,1.7,6.4c0,2.2-0.5,4.3-1.6,6.2c-1.1,1.9-2.6,3.5-4.6,4.7
		s-4.1,1.8-6.5,1.8c-2.3,0-4.5-0.6-6.4-1.7c-2-1.2-3.5-2.7-4.6-4.7C677.8,310.7,677.2,308.7,677.2,306.4z M679,306.4
		c0,1.9,0.5,3.8,1.5,5.5s2.3,3,4,4s3.5,1.4,5.4,1.4c2,0,3.8-0.5,5.4-1.5c1.7-1,3-2.3,4-4s1.5-3.5,1.5-5.5s-0.5-3.8-1.5-5.4
		c-1-1.7-2.3-3-4-4s-3.5-1.5-5.5-1.5s-3.8,0.5-5.4,1.5c-1.7,1-3,2.3-4,4C679.5,302.6,679,304.5,679,306.4z">
  </path>
 </g>
</svg>